 <svg id="OBJECT" viewBox="0 0 512 512" xmlns="http://www.w3.org/2000/svg"><defs><style>.cls-1{fill:#fff;}.cls-2{fill:#3d9ae2;}.cls-3{fill:#bddbff;}</style></defs><title/><polygon class="cls-1" points="396 504.5 256 424.5 116 504.5 116 224.5 396 224.5 396 504.5"/><path class="cls-2" d="M396,512a7.48,7.48,0,0,1-3.72-1L256,433.14,119.72,511a7.5,7.5,0,0,1-11.22-6.51v-280A7.5,7.5,0,0,1,116,217H396a7.5,7.5,0,0,1,7.5,7.5v280A7.5,7.5,0,0,1,396,512ZM256,417a7.48,7.48,0,0,1,3.72,1L388.5,491.58V232h-265V491.58L252.28,418A7.48,7.48,0,0,1,256,417Z"/><circle class="cls-3" cx="256" cy="182.5" r="175"/><path class="cls-2" d="M256,365C155.37,365,73.5,283.13,73.5,182.5S155.37,0,256,0,438.5,81.87,438.5,182.5,356.63,365,256,365Zm0-350C163.64,15,88.5,90.14,88.5,182.5S163.64,350,256,350s167.5-75.14,167.5-167.5S348.36,15,256,15Z"/><circle class="cls-3" cx="256" cy="182.5" r="130"/><path class="cls-2" d="M256,320c-75.82,0-137.5-61.68-137.5-137.5S180.18,45,256,45s137.5,61.68,137.5,137.5S331.82,320,256,320Zm0-260A122.5,122.5,0,1,0,378.5,182.5,122.63,122.63,0,0,0,256,60Z"/><path class="cls-1" d="M268.36,95.24l12.34,38a13,13,0,0,0,12.36,9H333c12.59,0,17.82,16.11,7.64,23.51l-32.3,23.47a13,13,0,0,0-4.72,14.53l12.34,38c3.89,12-9.82,21.94-20,14.54l-32.29-23.47a13,13,0,0,0-15.28,0L216.07,256.2c-10.19,7.4-23.9-2.56-20-14.54l12.34-38a13,13,0,0,0-4.72-14.53l-32.3-23.47c-10.18-7.4-4.95-23.51,7.64-23.51h39.92a13,13,0,0,0,12.36-9l12.34-38C247.53,83.27,264.47,83.27,268.36,95.24Z"/><path class="cls-2" d="M303.57,266.25a20.42,20.42,0,0,1-12-4l-32.3-23.46a5.49,5.49,0,0,0-6.46,0l-32.3,23.46a20.5,20.5,0,0,1-31.54-22.91l12.34-38a5.51,5.51,0,0,0-2-6.15L167,171.77A20.5,20.5,0,0,1,179,134.69h39.92a5.49,5.49,0,0,0,5.23-3.8l12.34-38a20.49,20.49,0,0,1,39,0h0l12.34,38a5.49,5.49,0,0,0,5.23,3.8H333a20.5,20.5,0,0,1,12,37.08l-32.3,23.46a5.51,5.51,0,0,0-2,6.15l12.34,38a20.17,20.17,0,0,1-7.45,22.91A20.43,20.43,0,0,1,303.57,266.25ZM256,222.74a20.48,20.48,0,0,1,12.05,3.93l32.29,23.46A5.5,5.5,0,0,0,308.8,244l-12.33-38a20.45,20.45,0,0,1,7.44-22.92l32.3-23.46a5.5,5.5,0,0,0-3.23-9.95H293.06a20.46,20.46,0,0,1-19.5-14.16l-12.33-38h0a5.5,5.5,0,0,0-10.46,0l-12.33,38a20.46,20.46,0,0,1-19.5,14.16H179a5.5,5.5,0,0,0-3.23,9.95l32.3,23.46A20.45,20.45,0,0,1,215.53,206L203.2,244a5.5,5.5,0,0,0,8.46,6.15L244,226.66A20.52,20.52,0,0,1,256,222.74Z"/></svg>