<svg height="200px" width="200px" version="1.1" id="Layer_1" xmlns="http://www.w3.org/2000/svg" xmlns:xlink="http://www.w3.org/1999/xlink" viewBox="0 0 451.30 451.30" xml:space="preserve" fill="#000000" stroke="#000000" stroke-width="0.00451296"><g id="SVGRepo_bgCarrier" stroke-width="0"></g><g id="SVGRepo_tracerCarrier" stroke-linecap="round" stroke-linejoin="round" stroke="#CCCCCC" stroke-width="6.318144"></g><g id="SVGRepo_iconCarrier"> <circle style="fill:#3e9dec;" cx="225.638" cy="225.648" r="225.638"></circle> <path style="opacity:0.1;enable-background:new ;" d="M451.296,225.648c0-2.02-0.099-4.015-0.152-6.022l-98.291-98.291 c-1.833-2.445-4.748-3.996-8.039-3.996H188.546c-5.594,0-10.155,4.513-10.155,10.108v42.969h-71.928 c-5.594,0-10.108,4.513-10.108,10.108v101.311c0,3.15,1.41,5.971,3.667,7.804l0.141,0.094l24.164,24.164v14.997 c0,1.833,0.893,3.291,2.21,4.184l0.141,0.094l117.326,117.327C360.033,441.143,451.296,344.085,451.296,225.648z"></path> <path style="fill:#FCD462;" d="M169.002,228.734v-58.317h-62.518c-5.593,0-10.128,4.536-10.128,10.128v101.283 c0,5.594,4.535,10.128,10.128,10.128h17.845v36.928c0,4.527,5.473,6.793,8.674,3.592l40.52-40.52h89.224 c5.594,0,10.128-4.534,10.128-10.128v-33.563h-84.343C177.761,248.264,169.002,239.505,169.002,228.734z"></path> <path style="fill:#FCD462;" d="M262.747,170.416h-93.745v58.317c0,10.771,8.759,19.53,19.53,19.53h84.343v-67.72 C272.875,174.953,268.34,170.416,262.747,170.416z"></path> <path style="fill:#44C4A1;" d="M188.53,117.322h156.263c5.594,0,10.128,4.535,10.128,10.128v101.282 c0,5.593-4.534,10.128-10.128,10.128h-17.845v36.927c0,4.527-5.473,6.794-8.674,3.593l-40.52-40.52H188.53 c-5.593,0-10.128-4.534-10.128-10.128V127.45C178.402,121.857,182.936,117.322,188.53,117.322z"></path> <g> <circle style="fill:#FFFFFF;" cx="219.182" cy="176.086" r="12.134"></circle> <circle style="fill:#FFFFFF;" cx="266.65" cy="176.086" r="12.134"></circle> <circle style="fill:#FFFFFF;" cx="314.163" cy="176.086" r="12.134"></circle> </g> </g></svg>