<svg viewBox="0 0 20 14" fill="current" stroke="none" xmlns="http://www.w3.org/2000/svg" className="navSectionIcon"><path fillRule="evenodd" clipRule="evenodd" d="M7 7a3.5 3.5 0 1 0 0-7 3.5 3.5 0 0 0 0 7Zm-7 5.3c0-2.4 4.7-3.6 7-3.6s7 1.2 7 3.6V14H0v-1.8Zm7-1.6c-1.8 0-3.8.7-4.7 1.3h9.4A9.6 9.6 0 0 0 7 10.7Zm1.5-7.2a1.5 1.5 0 1 0-3 0 1.5 1.5 0 0 0 3 0ZM14 8.8c1.2.8 2 2 2 3.4V14h4v-1.8c0-2-3.5-3.1-6-3.4Zm2.5-5.3a3.5 3.5 0 0 1-5 3.2 5.4 5.4 0 0 0 0-6.4L13 0c2 0 3.5 1.6 3.5 3.5Z" fill="current"></path></svg>