<svg width="241" height="230" viewBox="0 0 241 230" fill="none" xmlns="http://www.w3.org/2000/svg"><path d="M142.3 67.8l94 9.2-21 32.1-93.8-9.8 20.8-31.5z" fill="#C68344"></path><path d="M8.2 78.9l93.5-10.3 19.8 30.7-94.2 9.8L8.2 79z" fill="#D89649"></path><path d="M117.9 122.7l-90.6-13.6 94.2-9.8 93.8 9.8-97.4 13.6z" fill="#B5813E"></path><path d="M141.3 40.1a4.7 4.7 0 014.7-4.7h11a4.8 4.8 0 014.8 4.7l.4 90.8a4.7 4.7 0 01-4.7 4.7h-11a4.8 4.8 0 01-4.7-4.7l-.5-90.8z" fill="#4749F7"></path><path opacity="0.1" d="M151.2 135.6h-4.7a4.8 4.8 0 01-4.7-4.7l-.5-90.8a4.7 4.7 0 014.8-4.7h4.7A4.7 4.7 0 00146 40l.5 90.8a4.8 4.8 0 004.7 4.7z" fill="#231F20"></path><path d="M155 47.8h-13.6v1.4H155v-1.4zM146.6 44.7h-5.3v1.4h5.3v-1.4zM146.7 50.7h-5.3v1.4h5.3v-1.4z" fill="#9E9EA6"></path><path d="M153.1 90.4l-1-.4-1.3-.5-1.3-.5v.5l.6.2.7.3v2.2l-.6.3-.7.2v.5l1.4-.5 1.1-.5 1.1-.4 1-.5V91l-1-.5zm-.6 1.2l-1.3.5v-2l1.3.5 1.1.5-1.1.5zm.5-3.3a17.1 17.1 0 01-2-.7l-1-.4 1-.4 1-.4 1-.4c.3 0 .7-.2 1.1-.4v-.5l-1.5.6-1.2.4-1 .4-1 .5v.4a43.5 43.5 0 002 .8l1.2.5 1.6.5v-.5l-1.2-.4zm1.1-5.3l-1-.5-1.1-.4-1.2-.5-1.4-.5v.5l.7.2.6.3v2.3l-.6.2-.6.2v.5A87.8 87.8 0 00153 84l1-.5V83zm-1.7.7l-1.3.5v-2l1.3.5 1.2.5-1.2.5zM151 80c-.3 0-.6 0-.9-.3a1 1 0 01-.3-.7v-.3a3.1 3.1 0 01.2-.5l.2-.2-.4-.2-.1.2-.2.2a1.9 1.9 0 00-.1.8l.1.7c0 .2.2.3.4.5l.5.2H154V80h-3.2z" fill="#fff"></path><path d="M121 4.7a4.8 4.8 0 014.8-4.7h10.8a4.7 4.7 0 014.7 4.7l-.7 126.2a4.8 4.8 0 01-4.8 4.7H125a4.7 4.7 0 01-4.7-4.7L121 4.7z" fill="#E30B39"></path><path opacity="0.1" d="M128.8 135.6H125a4.7 4.7 0 01-4.7-4.7L121 4.8a4.8 4.8 0 014.7-4.8h3.9a4.8 4.8 0 00-4.8 4.8l-.7 126.1a4.7 4.7 0 004.7 4.7z" fill="#231F20"></path><path d="M137.7 12.6h-13.6a.7.7 0 01-.5-1.1c.1-.2.3-.2.5-.2h13.6a.7.7 0 01.4 1.1l-.4.2zM137.5 125.5h-13.6a.7.7 0 01-.7-.6.7.7 0 01.2-.5.7.7 0 01.5-.2h13.6a.7.7 0 01.5.2.7.7 0 01.2.7.7.7 0 01-.4.4h-.3zM137.5 121.1H124c-.2 0-.3 0-.4-.2a.7.7 0 01.4-1.1h13.6a.7.7 0 01.5.2.7.7 0 01.2.7.7.7 0 01-.4.4h-.3zM137.7 16.3H124a.7.7 0 01-.5-1.1l.5-.2h13.6a.7.7 0 110 1.3z" fill="#2E2E42"></path><path d="M130.9 76.3l-.2.4.2.9c0 .2-.1.5-.3.7a.9.9 0 01-.7.3 1 1 0 01-.8-.3 1 1 0 01-.2-.7V77l.5-.6-.5-.3c-.2.1-.3.4-.4.6l-.2.9c0 .3 0 .6.2.8.1.3.3.5.5.6l.9.3c.3 0 .5 0 .8-.2l.5-.5.2-.8c0-.3 0-.6-.2-.8l1.4.1v1.8l.6.1v-2.5l-2.3-.2zm-2.5-5.3v2.8h.5v-2.1h4.3V71h-4.8zm4.8-5.9l-4.8-.6v.7l4 .4-4 1.3v.7l4 1.3-4 .5v.6l4.8-.6v-.8l-3.8-1.3 3.8-1.4v-.8zm-.5-4.4v1.5h-4.3v.6h4.3v1.4h.5v-3.5h-.5zm.6-3.7v-.6h-4.8v.6h2.2v2.5h-2.2v.6h4.8v-.6h-2V57h2z" fill="#fff"></path><path d="M162.3 40.2a4.7 4.7 0 014.7-4.7h11a4.8 4.8 0 014.8 4.7l.2 90.7a4.7 4.7 0 01-4.7 4.7h-11a4.8 4.8 0 01-4.8-4.7l-.2-90.7z" fill="#FFAC00"></path><path opacity="0.1" d="M171 135.6h-3.7a4.7 4.7 0 01-4.8-4.7l-.2-90.7a4.7 4.7 0 014.7-4.7h3.9a4.7 4.7 0 00-4.8 4.7l.2 90.7a4.8 4.8 0 004.8 4.7z" fill="#231F20"></path><path d="M162.2 50.6h11.6a.7.7 0 00.5-1.1.7.7 0 00-.5-.2h-11.6v1.3zM162.4 121.8H174a.7.7 0 00.6-.6.7.7 0 00-.6-.7h-11.6v1.3z" fill="#3D3D50"></path><path d="M172.7 90.8v-2h-.5v2H170v.5h2.2v2h.5v-2h2.1v-.5h-2zm2.1-5.3h-2.1v-2h-.5v2H170v.6h2.2v2h.5v-2h2.1v-.6zm.9-6.5l-1-1-1.6-.2h-.9a4 4 0 00-1.6.3 2.3 2.3 0 00-1.4 2.2c0 .6.2 1.2.6 1.6.4.5 1 .8 1.6.8v-.6a2 2 0 01-1.3-.5c-.3-.4-.4-.9-.4-1.3a1.7 1.7 0 01.7-1.5 3 3 0 011.8-.5h.8a3 3 0 011.9.6 1.8 1.8 0 01.7 1.4c0 1-.6 1.7-1.7 1.8v.6c.6 0 1.1-.3 1.6-.7.4-.5.6-1 .5-1.7 0-.5 0-1-.3-1.3z" fill="#000"></path><path d="M88.7 24a4.7 4.7 0 014.7-4.8h21.9a4.8 4.8 0 014.7 4.7l.3 107a4.7 4.7 0 01-4.8 4.7H93.7a4.8 4.8 0 01-4.8-4.7l-.2-107z" fill="#88F"></path><path opacity="0.1" d="M99.5 135.6h-5.8a4.8 4.8 0 01-4.8-4.7l-.2-107a4.7 4.7 0 014.7-4.7h5.9a4.7 4.7 0 00-4.8 4.7l.3 107a4.8 4.8 0 004.7 4.7z" fill="#231F20"></path><g opacity="0.5" fill="#fff"><path opacity="0.5" d="M114.3 36.8H94a.7.7 0 110-1.4h20.4a.7.7 0 01.7 1 .7.7 0 01-.7.4zM114.3 39.5H94a.7.7 0 010-1.3h20.4a.7.7 0 01.5 1.1c-.1.2-.3.2-.5.2zM114.3 42.2H94a.7.7 0 110-1.3h20.4a.7.7 0 01.7.7.7.7 0 01-.7.6zM115 119.4H94.6a.7.7 0 01-.6-.7.7.7 0 01.6-.6H115a.7.7 0 01.7.4.7.7 0 01-.7 1zM115 116.9H94.6a.7.7 0 010-1.4H115a.7.7 0 01.7.4.7.7 0 01-.7 1zM115 114.2H94.6a.7.7 0 010-1.4H115a.7.7 0 010 1.4z"></path></g><path d="M109.3 81.6V81l-2.7-.6v-2h-.7v2l-2.9-.6V78h-.6v1.7l-2.7-.5v.6l2.7.5v2.1l-2.7-.5v.7l2.7.5v1.8h.6v-1.7l3 .5v1.7h.5v-1.5l2.8.5v-.7l-2.8-.5v-2l2.8.4zm-3.4 1.5l-2.9-.6v-2l3 .5v2zm3-11.9c-.4-.6-1-1-1.6-1.3-.7-.3-1.5-.4-2.2-.4h-1.3a5.9 5.9 0 00-2.2.5 3.4 3.4 0 00-2 3.1c-.1 1 .2 1.8.7 2.5.6.6 1.5 1 2.4 1v-.8a3 3 0 01-1.9-.8c-.4-.4-.6-1-.6-1.9a2.5 2.5 0 011-2c.5-.4 1-.6 1.7-.7h2.1c1.2 0 2.1.2 2.8.7a2.6 2.6 0 011 2c0 1.6-.8 2.5-2.4 2.7h-.1v.8a4 4 0 002.3-1c.6-.6.8-1.4.8-2.4 0-.7-.2-1.4-.5-2z" fill="#fff"></path><path d="M183 24a4.7 4.7 0 014.7-4.8h21.9a4.8 4.8 0 014.7 4.7l.3 107a4.7 4.7 0 01-4.8 4.7H188a4.8 4.8 0 01-4.8-4.7l-.2-107z" fill="#51DDC2"></path><path opacity="0.1" d="M193.8 135.6H188a4.8 4.8 0 01-4.8-4.7l-.2-107a4.7 4.7 0 014.7-4.7h5.8a4.7 4.7 0 00-4.7 4.7l.2 107a4.8 4.8 0 004.8 4.7z" fill="#231F20"></path><path opacity="0.8" d="M209.5 36.8h-20.4a1.4 1.4 0 010-2.7h20.4a1.4 1.4 0 010 2.7zM209.5 42.2h-20.4a1.4 1.4 0 110-2.7h20.4a1.4 1.4 0 010 2.7zM209.5 118h-20.4a1.4 1.4 0 110-2.7h20.4a1.4 1.4 0 110 2.8zM209.5 123.5h-20.4a1.4 1.4 0 01-1-2.3c.3-.2.6-.4 1-.4h20.4a1.4 1.4 0 011.3 1.4 1.4 1.4 0 01-1.3 1.3z" fill="#BFBFC4"></path><path d="M204.6 93.2v-7.4h-.7V89h-9v.8h9v3.3h.7zm-9.7-14.6v.8h4v2.8l-4 2.3v.9l4.2-2.4c.1.5.5 1 1 1.4.4.4 1 .6 1.6.6a2.6 2.6 0 002-1c.6-.5.8-1.3.8-2.3v-3.1H195zm9 3c0 .7-.2 1.4-.6 1.9a2 2 0 01-1.6.6 2 2 0 01-1.5-.6c-.4-.4-.6-1-.6-1.6v-2.5h4.2v2.3zm-9-12.5v.8l2.7 1v4.4l-2.7 1v.9l8.8-3.4.8-.3v-.8l-9.6-3.6zm3.4 6v-3.9l5.2 1.9-1.4.5-3.8 1.4zm6.2-13.7h-9.6V64c0 .8.1 1.5.5 2.2.4.6.9 1.1 1.5 1.4.8.4 1.5.6 2.3.6h1c.7 0 1.5-.2 2.2-.6.7-.3 1.2-.8 1.6-1.4.3-.7.5-1.4.5-2.1v-2.7zm-.7 2.7a3 3 0 01-1 2.4c-.7.6-1.7 1-2.7.9h-.8c-1 0-2-.3-2.8-1a3.2 3.2 0 01-1-2.4v-1.8h8.3V64z" fill="#fff"></path><path d="M68.4 4.7A4.8 4.8 0 0173 0H84a4.7 4.7 0 014.7 4.7L88 131a4.8 4.8 0 01-4.8 4.7H72.3a4.7 4.7 0 01-4.7-4.7l.8-126.2z" fill="#51DDC2"></path><path opacity="0.1" d="M76.3 135.6h-4a4.7 4.7 0 01-4.7-4.7l.8-126.2A4.8 4.8 0 0173 0h4a4.8 4.8 0 00-4.8 4.7L71.6 131a4.7 4.7 0 004.7 4.7z" fill="#231F20"></path><path d="M71.4 12.1c-.2 0-.4-.3-.4-.7 0-.3.2-.6.4-.6H85c.3 0 .5.3.5.6 0 .4-.2.7-.5.7H71.4zM84.5 124.9H71.3c-.3 0-.5-.3-.5-.7 0-.4.2-.7.5-.7h13.2c.2 0 .4.3.4.7 0 .4-.2.7-.4.7zM84.5 121H71.3c-.2 0-.4-.3-.4-.7 0-.4.2-.7.4-.7h13.2c.3 0 .5.3.5.7 0 .4-.2.7-.5.7zM85 15.7H71.4c-.2 0-.4-.3-.4-.7 0-.4.2-.7.4-.7H85c.3 0 .5.3.5.7 0 .4-.2.7-.5.7z" fill="#2E2E42"></path><path d="M80 74v1.4h-4.3v.7H80v1.4h.5V74H80zm.3-3c0-.2-.2-.3-.3-.4-.4-.4-1-.6-1.8-.6s-1.4.2-1.9.6c-.2.2-.4.5-.5.9l-.1.7v.8l.3.6.5-.2c-.2-.3-.3-.7-.3-1.1 0-.4.1-.7.3-1l.2-.2a2.8 2.8 0 012.8 0 1.3 1.3 0 01.5 1 1.3 1.3 0 01-.5 1.1l.4.5a1.8 1.8 0 00.7-1.5c0-.5 0-.9-.3-1.2zm-4.5-5.5v.7l1.4.5v1.8l-1.4.6v.6l4.8-1.7V67l-4.8-1.6zm2 2.9v-1.5l2 .7-2 .8zm-2-6.2V65h.6v-2.3H78v2h.5v-2h1.5V65h.5v-2.8h-4.8zm0-4v.6h2v.7l-2 1.2v.7l2-1.2c.1.3.3.6.5.7l.9.3a1.3 1.3 0 001-.4c.3-.4.4-.8.4-1.3v-1.4h-4.8zm4.3 1.3c0 .3-.1.6-.3.8a.8.8 0 01-.6.2.9.9 0 01-.7-.2l-.2-.8v-.7h1.8v.7z" fill="#fff"></path><path d="M47.1 130.9a4.7 4.7 0 01-4.7 4.7h-11a4.8 4.8 0 01-4.7-4.7v-12.4l-.4-65.8V40.1a4.7 4.7 0 014.7-4.7h11a4.8 4.8 0 014.7 4.7l.4 90.8z" fill="#4749F7"></path><path opacity="0.1" d="M35.2 135.6h-3.7a4.8 4.8 0 01-4.8-4.7l-.4-90.8a4.7 4.7 0 014.7-4.7h3.7A4.7 4.7 0 0030 40l.4 90.8a4.8 4.8 0 004.8 4.7z" fill="#231F20"></path><path opacity="0.3" d="M39.9 49a.7.7 0 01-.7.7h-13v-1.4h13a.7.7 0 01.7.7z" fill="#fff"></path><path d="M40.2 122.2a.7.7 0 01-.6.7h-13v-1.4h13.2a.7.7 0 01.4.4v.3z" fill="#2E2E42"></path><path opacity="0.3" d="M26.2 46.6H31a.7.7 0 000-1.4h-4.7v1.4z" fill="#fff"></path><path d="M32 119.1a.7.7 0 01-.8.7h-4.6v-1.4h4.6a.7.7 0 01.7.7z" fill="#2E2E42"></path><path opacity="0.3" d="M31.6 52a.7.7 0 01-.7.6h-4.6v-1.3h4.6a.7.7 0 01.7.6z" fill="#fff"></path><path d="M32 125.1a.7.7 0 01-.7.7h-4.7v-1.3h4.7a.7.7 0 01.6.6z" fill="#2E2E42"></path><path d="M35 88.7v2.7h.3v-2.2h4.3v-.5H35zm4.5-4a2.1 2.1 0 00-1.2-1.2 3 3 0 00-1-.2 3 3 0 00-1 .2c-.4 0-.6.2-.9.4l-.4.7a2 2 0 00-.2.8 1 1 0 00-.5.3l-.3.4-.2.6-.1.6h.4V87l.2-.5.2-.3.3-.2.3.7.5.6.7.4 1 .1c.3 0 .7 0 1-.2.3 0 .6-.2.8-.4l.4-.7c.2-.3.2-.6.2-.9 0-.3 0-.6-.2-.8zm-.4 1.5l-.3.6-.7.3a2.8 2.8 0 01-1.7 0l-.6-.3-.4-.6-.2-.7c0-.2 0-.5.2-.7 0-.2.2-.4.4-.5l.6-.4a2.8 2.8 0 011.7 0l.7.4a1.6 1.6 0 01.5 1.2c0 .3 0 .5-.2.7zm.3-6a1.2 1.2 0 00-1-.5 1 1 0 00-.8.4l-.2.4-.3.5-.1.4c0 .2-.2.3-.3.4l-.2.3H36a.7.7 0 01-.6-.2c-.2-.3-.2-.6-.2-.9v-.4a2.3 2.3 0 01.2-.6v-.2l-.3-.2-.1.2-.1.3-.1.4v.5c0 .4 0 .8.3 1.2a1.1 1.1 0 001 .5c.1 0 .3 0 .5-.2.2 0 .3-.1.4-.3l.2-.4.3-.5.2-.4.1-.4.3-.2c.1 0 .2-.1.4 0h.3l.3.2.1.3v1l-.2.5.4.2v-.3l.2-.3v-.3-.4c0-.4 0-.7-.2-1z" fill="#fff"></path><path d="M67.6 130.9a4.7 4.7 0 01-4.7 4.7H52.1a4.8 4.8 0 01-4.8-4.7l-.2-90.2a4.7 4.7 0 014.7-4.7h10.9a4.7 4.7 0 014.7 4.7l.2 90.2z" fill="#D0DFF6"></path><path opacity="0.1" d="M55.6 135.6h-3.5a4.8 4.8 0 01-4.8-4.7l-.2-90.2a4.7 4.7 0 014.7-4.7h3.6a4.7 4.7 0 00-4.7 4.7l.1 90.2a4.8 4.8 0 004.8 4.7z" fill="#231F20"></path><path d="M63.4 46.3H51.2a.7.7 0 110-1.3h12.2a.7.7 0 110 1.3zM63.6 126.6H51a.7.7 0 01-.4-.9.7.7 0 01.7-.4h12.2a.7.7 0 01.6.4.7.7 0 01-.6 1z" fill="#6B6A7A"></path><path d="M55.7 98l4-2.7v-.4H55v.4H59L55 98v.5h4.8V98h-4.1zm3.9-7a2 2 0 00-.8-.7l-1.2-.2h-.5c-.6 0-1.1.1-1.6.5A1.7 1.7 0 0055 92c0 .3.1.7.3 1 .2.3.4.5.8.6.3.2.7.3 1.1.2h.6c.4 0 .8 0 1.1-.2.4-.1.6-.4.8-.7.2-.2.3-.6.3-1l-.3-1zm-.6 2c-.4.3-.9.5-1.4.4h-.5c-.5 0-1 0-1.3-.4a1.4 1.4 0 010-2.1c.3-.3.8-.4 1.3-.4h.5c.5 0 1 .1 1.4.4a1.3 1.3 0 01.5 1A1.3 1.3 0 0159 93zm-1.4-4.3v-2.8h2.2v-.4H55v.4h2.3v2.8H55v.4h4.8v-.4h-2.2zm1.8-7.7v1.7H55v.4h4.4v1.6h.4V81h-.4zm-2.3-2.3l2.6-1.4v-.5l-3 1.7H55v.4h1.8l3 1.8v-.5L57 78.7zM55 73.2v.4h2v1.2c-.1.4 0 .9.3 1.2a1.3 1.3 0 001 .4 1.3 1.3 0 001-.4c.4-.4.5-.8.5-1.2v-1.6H55zm4.4 1.6c0 .3 0 .7-.3 1a1 1 0 01-.8.2 1 1 0 01-.8-.3c-.2-.2-.3-.6-.3-.9v-1.2h2.2v1.2z" fill="#000"></path><path d="M117.9 122.7V230l-90.6-32v-88.9l90.6 13.6z" fill="#E7A44F"></path><path d="M215.9 198l-98 32V122.7l97.4-13.6.2 35.3.1 13.6.3 40z" fill="#DD9D51"></path><path d="M117.9 122.7l97.4-13.6 25.5 30.1-96.3 19.8-26.6-36.3z" fill="#DD9D51"></path><path d="M27.3 109.1l90.6 13.6L90 159 0 140l27.3-30.9z" fill="#E7A44F"></path><path opacity="0.1" d="M215.6 158l-71 14.6-26.7-49.9 9 12.3 17.6 24 71-14.6.1 13.6z" fill="#231F20"></path><path opacity="0.1" d="M117.9 122.7L90 172.6l-62.8-13.2v-13.6L90 159l18.5-24.1 9.3-12.2z" fill="#231F20"></path></svg>