<svg viewBox="-2.4 -2.4 28.80 28.80" fill="none" xmlns="http://www.w3.org/2000/svg"><g id="SVGRepo_bgCarrier" stroke-width="0"></g><g id="SVGRepo_tracerCarrier" stroke-linecap="round" stroke-linejoin="round"></g><g id="SVGRepo_iconCarrier"> <path opacity="0.15" d="M12 3C8.68629 3 6 5.68629 6 9C6 13 4 17 4 17H20C20 17 18 13 18 9C18 5.68629 15.3137 3 12 3Z" fill="#3e9dec"></path> <path d="M9 17V18C9 18.394 9.0776 18.7841 9.22836 19.1481C9.37913 19.512 9.6001 19.8427 9.87868 20.1213C10.1573 20.3999 10.488 20.6209 10.8519 20.7716C11.2159 20.9224 11.606 21 12 21C12.394 21 12.7841 20.9224 13.1481 20.7716C13.512 20.6209 13.8427 20.3999 14.1213 20.1213C14.3999 19.8427 14.6209 19.512 14.7716 19.1481C14.9224 18.7841 15 18.394 15 18V17M18 9C18 12 20 17 20 17H4C4 17 6 13 6 9C6 5.732 8.732 3 12 3C15.268 3 18 5.732 18 9Z" stroke="#3e9dec" stroke-width="1.5" stroke-linecap="round" stroke-linejoin="round"></path> </g></svg>